# xmcd CD database file
#
# Track frame offsets:
#	150
#	19083
#	30629
#	41748
#	54110
#	64397
#	81991
#	94381
#	106322
#	123562
#	141680
#	150090
#	165197
#	176597
#	188902
#	203392
#
# Disc length: 2982 seconds
#
# Revision: 1
# Processed by: cddbd v1.5.2PL0 Copyright (c) Steve Scherf et al.
# Submitted via: cdripper 1,0,32,406
#
DISCID=d00ba410
DTITLE=Heidi Hauge - Country Dance
DYEAR=2003
DGENRE=Country
TTITLE0=Save the last dance for me
TTITLE1=Diggy liggy lo
TTITLE2=Lead me on
TTITLE3=A good year for the roses
TTITLE4=I never really knew you
TTITLE5=Seven spanish angels
TTITLE6=When the rodeo is over
TTITLE7=As soon as i hang up the phone
TTITLE8=Dancing the night away
TTITLE9=All those years
TTITLE10=It`s a cowboy lovin`night
TTITLE11=Harper valley PTA
TTITLE12=All that`s keeping me alive
TTITLE13=He thinks i still care
TTITLE14=Coat of many colour
TTITLE15=Skaidi
EXTD=YEAR: 2003
EXTT0=
EXTT1=
EXTT2=
EXTT3=
EXTT4=
EXTT5=
EXTT6=
EXTT7=
EXTT8=
EXTT9=
EXTT10=
EXTT11=
EXTT12=
EXTT13=
EXTT14=
EXTT15=
PLAYORDER=
